<svg width="387" height="76" viewBox="0 0 387 76" fill="none" xmlns="http://www.w3.org/2000/svg">
<mask id="mask0_673_1454" style="mask-type:alpha" maskUnits="userSpaceOnUse" x="0" y="0" width="387" height="76">
<rect width="387" height="76" fill="url(#paint0_linear_673_1454)"/>
</mask>
<g mask="url(#mask0_673_1454)">
<path d="M59.1571 60.7527H29.0983L23.5131 74.5769H3L34.3789 3.42308H54.1811L85.6616 74.5769H64.7423L59.1571 60.7527ZM53.2672 45.9121L44.1277 23.1429L34.9882 45.9121H53.2672ZM145.996 37.4753C150.058 38.8984 153.24 41.1346 155.541 44.1841C157.843 47.1658 158.994 50.7912 158.994 55.0604C158.994 61.2949 156.489 66.1062 151.479 69.4945C146.47 72.8828 139.226 74.5769 129.748 74.5769H91.3619V3.42308H127.717C136.789 3.42308 143.694 5.11722 148.433 8.5055C153.172 11.826 155.541 16.3324 155.541 22.0247C155.541 25.413 154.695 28.4625 153.003 31.1731C151.378 33.8159 149.042 35.9167 145.996 37.4753ZM111.266 17.9588V31.6813H125.076C131.846 31.6813 135.231 29.3773 135.231 24.7692C135.231 20.2289 131.846 17.9588 125.076 17.9588H111.266ZM128.123 60.0412C135.164 60.0412 138.684 57.6355 138.684 52.8242C138.684 48.0128 135.164 45.6071 128.123 45.6071H111.266V60.0412H128.123ZM205.256 76C197.741 76 190.971 74.4075 184.946 71.2225C178.988 68.0375 174.283 63.6328 170.83 58.0082C167.445 52.3837 165.753 46.0476 165.753 39C165.753 31.9524 167.445 25.6163 170.83 19.9918C174.283 14.3672 178.988 9.96246 184.946 6.77747C190.971 3.59249 197.741 2 205.256 2C212.77 2 219.507 3.59249 225.464 6.77747C231.489 9.96246 236.195 14.3672 239.58 19.9918C243.032 25.6163 244.759 31.9524 244.759 39C244.759 46.0476 243.032 52.3837 239.58 58.0082C236.195 63.6328 231.489 68.0375 225.464 71.2225C219.507 74.4075 212.77 76 205.256 76ZM205.256 59.3297C208.844 59.3297 212.093 58.4826 215.005 56.7885C217.916 55.0943 220.217 52.7225 221.91 49.6731C223.602 46.5559 224.449 42.9982 224.449 39C224.449 35.0018 223.602 31.478 221.91 28.4286C220.217 25.3114 217.916 22.9057 215.005 21.2115C212.093 19.5174 208.844 18.6703 205.256 18.6703C201.668 18.6703 198.418 19.5174 195.507 21.2115C192.596 22.9057 190.294 25.3114 188.602 28.4286C186.909 31.478 186.063 35.0018 186.063 39C186.063 42.9982 186.909 46.5559 188.602 49.6731C190.294 52.7225 192.596 55.0943 195.507 56.7885C198.418 58.4826 201.668 59.3297 205.256 59.3297ZM288.09 76C277.529 76 269.303 73.12 263.413 67.3599C257.591 61.5998 254.68 53.4341 254.68 42.8626V3.42308H274.787V42.2528C274.787 53.6374 279.289 59.3297 288.293 59.3297C297.229 59.3297 301.698 53.6374 301.698 42.2528V3.42308H321.5V42.8626C321.5 53.4341 318.555 61.5998 312.665 67.3599C306.843 73.12 298.651 76 288.09 76ZM349.161 19.3819H327.328V3.42308H391V19.3819H369.268V74.5769H349.161V19.3819Z" fill="#BBF120"/>
</g>
<defs>
<linearGradient id="paint0_linear_673_1454" x1="194" y1="-36.5" x2="194" y2="76" gradientUnits="userSpaceOnUse">
<stop stop-color="#C4C4C4"/>
<stop offset="1" stop-color="#C4C4C4" stop-opacity="0"/>
</linearGradient>
</defs>
</svg>
