<svg width="733" height="104" viewBox="0 0 733 104" fill="none" xmlns="http://www.w3.org/2000/svg">
<mask id="mask0_673_778" style="mask-type:alpha" maskUnits="userSpaceOnUse" x="0" y="0" width="733" height="104">
<rect width="733" height="104" fill="url(#paint0_linear_673_778)"/>
</mask>
<g mask="url(#mask0_673_778)">
<path d="M26.6657 31.4808V52.2115H68.2804V72.8077H26.6657V105.115H0V10.8846H73.9368V31.4808H26.6657ZM162.095 84.5192V105.115H86.4077V10.8846H160.345V31.4808H112.804V47.3654H154.688V67.2885H112.804V84.5192H162.095ZM240.056 86.8077H200.192L192.785 105.115H165.58L207.195 10.8846H233.457L275.206 105.115H247.463L240.056 86.8077ZM232.245 67.1539L220.124 37L208.003 67.1539H232.245ZM298.098 32.0192H269.143V10.8846H353.584V32.0192H324.764V105.115H298.098V32.0192ZM405.572 107C391.566 107 380.657 103.186 372.846 95.5577C365.124 87.9295 361.264 77.1154 361.264 63.1154V10.8846H387.93V62.3077C387.93 77.3846 393.9 84.9231 405.841 84.9231C417.693 84.9231 423.618 77.3846 423.618 62.3077V10.8846H449.88V63.1154C449.88 77.1154 445.975 87.9295 438.163 95.5577C430.442 103.186 419.578 107 405.572 107ZM509.155 80.0769H494.61V105.115H467.945V10.8846H511.041C519.57 10.8846 526.977 12.3205 533.262 15.1923C539.547 17.9744 544.395 22.0128 547.807 27.3077C551.219 32.5128 552.925 38.6603 552.925 45.75C552.925 52.5705 551.309 58.5385 548.076 63.6539C544.934 68.6795 540.4 72.6282 534.474 75.5L554.81 105.115H526.259L509.155 80.0769ZM525.99 45.75C525.99 41.3526 524.598 37.9423 521.815 35.5192C519.031 33.0962 514.901 31.8846 509.425 31.8846H494.61V59.4808H509.425C514.901 59.4808 519.031 58.3141 521.815 55.9808C524.598 53.5577 525.99 50.1474 525.99 45.75ZM643.323 84.5192V105.115H567.636V10.8846H641.573V31.4808H594.032V47.3654H635.916V67.2885H594.032V84.5192H643.323ZM691.251 107C683.619 107 676.212 106.058 669.029 104.173C661.847 102.288 656.011 99.7756 651.521 96.6346L660.275 76.9808C664.495 79.7628 669.388 82.0064 674.955 83.7115C680.522 85.4167 685.998 86.2692 691.385 86.2692C701.621 86.2692 706.738 83.7115 706.738 78.5962C706.738 75.9039 705.257 73.9295 702.294 72.6731C699.421 71.3269 694.752 69.9359 688.288 68.5C681.195 66.9744 675.269 65.359 670.511 63.6539C665.752 61.859 661.667 59.0321 658.255 55.1731C654.843 51.3141 653.138 46.109 653.138 39.5577C653.138 33.8141 654.709 28.6539 657.851 24.0769C660.994 19.4103 665.662 15.7308 671.857 13.0385C678.142 10.3462 685.819 9 694.887 9C701.082 9 707.187 9.71795 713.203 11.1539C719.218 12.5 724.515 14.5192 729.094 17.2115L720.879 37C711.901 32.1539 703.192 29.7308 694.752 29.7308C689.455 29.7308 685.594 30.5385 683.17 32.1539C680.746 33.6795 679.534 35.6987 679.534 38.2115C679.534 40.7244 680.97 42.609 683.843 43.8654C686.716 45.1218 691.34 46.4231 697.715 47.7692C704.898 49.2949 710.823 50.9551 715.492 52.75C720.251 54.4551 724.336 57.2372 727.748 61.0962C731.249 64.8654 733 70.0256 733 76.5769C733 82.2308 731.429 87.3462 728.286 91.9231C725.144 96.5 720.43 100.179 714.145 102.962C707.861 105.654 700.229 107 691.251 107Z" fill="#BBF120"/>
</g>
<defs>
<linearGradient id="paint0_linear_673_778" x1="366.5" y1="0" x2="366.909" y2="80.9396" gradientUnits="userSpaceOnUse">
<stop stop-color="#C4C4C4"/>
<stop offset="1" stop-color="#C4C4C4" stop-opacity="0"/>
</linearGradient>
</defs>
</svg>
