<svg width="472" height="81" viewBox="0 0 472 81" fill="none" xmlns="http://www.w3.org/2000/svg">
<mask id="mask0_673_795" style="mask-type:alpha" maskUnits="userSpaceOnUse" x="0" y="0" width="472" height="81">
<rect width="472" height="81" fill="url(#paint0_linear_673_795)"/>
</mask>
<g mask="url(#mask0_673_795)">
<path d="M31.2873 7.35C37.4795 7.35 42.857 8.37857 47.4198 10.4357C51.9825 12.4286 55.5023 15.3214 57.9792 19.1143C60.4561 22.8429 61.6946 27.2464 61.6946 32.325C61.6946 37.4036 60.4561 41.8071 57.9792 45.5357C55.5023 49.2643 51.9825 52.1572 47.4198 54.2143C42.857 56.2071 37.4795 57.2036 31.2873 57.2036H19.359V74.85H0V7.35H31.2873ZM30.114 42.1607C34.0901 42.1607 37.0884 41.325 39.1091 39.6536C41.1297 37.9179 42.14 35.475 42.14 32.325C42.14 29.175 41.1297 26.7321 39.1091 24.9964C37.0884 23.2607 34.0901 22.3929 30.114 22.3929H19.359V42.1607H30.114ZM101.052 56.9143H90.4925V74.85H71.1334V7.35H102.421C108.613 7.35 113.99 8.37857 118.553 10.4357C123.116 12.4286 126.636 15.3214 129.113 19.1143C131.59 22.8429 132.828 27.2464 132.828 32.325C132.828 37.2107 131.655 41.4857 129.308 45.15C127.027 48.75 123.735 51.5786 119.433 53.6357L134.197 74.85H113.469L101.052 56.9143ZM113.273 32.325C113.273 29.175 112.263 26.7321 110.243 24.9964C108.222 23.2607 105.224 22.3929 101.247 22.3929H90.4925V42.1607H101.247C105.224 42.1607 108.222 41.325 110.243 39.6536C112.263 37.9179 113.273 35.475 113.273 32.325ZM178.022 76.2C170.787 76.2 164.268 74.6893 158.467 71.6679C152.731 68.6464 148.201 64.4679 144.877 59.1321C141.618 53.7964 139.988 47.7857 139.988 41.1C139.988 34.4143 141.618 28.4036 144.877 23.0679C148.201 17.7321 152.731 13.5536 158.467 10.5321C164.268 7.51071 170.787 6 178.022 6C185.257 6 191.743 7.51071 197.479 10.5321C203.28 13.5536 207.81 17.7321 211.069 23.0679C214.393 28.4036 216.055 34.4143 216.055 41.1C216.055 47.7857 214.393 53.7964 211.069 59.1321C207.81 64.4679 203.28 68.6464 197.479 71.6679C191.743 74.6893 185.257 76.2 178.022 76.2ZM178.022 60.3857C181.477 60.3857 184.605 59.5822 187.408 57.975C190.211 56.3679 192.427 54.1179 194.057 51.225C195.686 48.2679 196.501 44.8929 196.501 41.1C196.501 37.3071 195.686 33.9643 194.057 31.0714C192.427 28.1143 190.211 25.8321 187.408 24.225C184.605 22.6179 181.477 21.8143 178.022 21.8143C174.567 21.8143 171.438 22.6179 168.636 24.225C165.833 25.8321 163.617 28.1143 161.987 31.0714C160.358 33.9643 159.543 37.3071 159.543 41.1C159.543 44.8929 160.358 48.2679 161.987 51.225C163.617 54.1179 165.833 56.3679 168.636 57.975C171.438 59.5822 174.567 60.3857 178.022 60.3857ZM239.722 76.2C234.703 76.2 230.14 75.3643 226.034 73.6929C221.927 71.9572 218.57 69.4821 215.963 66.2679L226.523 53.925C230.173 58.6179 234.116 60.9643 238.353 60.9643C241.156 60.9643 243.274 60.1286 244.708 58.4571C246.207 56.7857 246.957 54.3429 246.957 51.1286V22.1036H223.296V7.35H266.12V49.9714C266.12 58.7143 263.872 65.2714 259.374 69.6429C254.942 74.0143 248.391 76.2 239.722 76.2ZM334.135 60.0964V74.85H279.187V7.35H332.864V22.1036H298.35V33.4821H328.758V47.7536H298.35V60.0964H334.135ZM378.905 76.2C371.735 76.2 365.282 74.7214 359.546 71.7643C353.875 68.7429 349.41 64.5643 346.151 59.2286C342.892 53.8929 341.263 47.85 341.263 41.1C341.263 34.35 342.892 28.3071 346.151 22.9714C349.41 17.6357 353.875 13.4893 359.546 10.5321C365.282 7.51071 371.735 6 378.905 6C385.163 6 390.801 7.09286 395.82 9.27858C400.839 11.4643 405.01 14.6143 408.335 18.7286L396.015 29.7214C391.583 24.45 386.205 21.8143 379.883 21.8143C376.167 21.8143 372.843 22.6179 369.91 24.225C367.042 25.8321 364.793 28.1143 363.164 31.0714C361.599 33.9643 360.817 37.3071 360.817 41.1C360.817 44.8929 361.599 48.2679 363.164 51.225C364.793 54.1179 367.042 56.3679 369.91 57.975C372.843 59.5822 376.167 60.3857 379.883 60.3857C386.205 60.3857 391.583 57.75 396.015 52.4786L408.335 63.4714C405.01 67.5857 400.839 70.7357 395.82 72.9214C390.801 75.1072 385.163 76.2 378.905 76.2ZM430.961 22.4893H409.94V7.35H471.244V22.4893H450.32V74.85H430.961V22.4893Z" fill="#BBF120"/>
</g>
<defs>
<linearGradient id="paint0_linear_673_795" x1="236" y1="0" x2="236" y2="81" gradientUnits="userSpaceOnUse">
<stop stop-color="#C4C4C4"/>
<stop offset="1" stop-color="#C4C4C4" stop-opacity="0"/>
</linearGradient>
</defs>
</svg>
