<svg width="703" height="115" viewBox="0 0 703 115" fill="none" xmlns="http://www.w3.org/2000/svg">
<mask id="mask0_673_740" style="mask-type:alpha" maskUnits="userSpaceOnUse" x="0" y="0" width="703" height="115">
<rect width="703" height="115" fill="url(#paint0_linear_673_740)"/>
</mask>
<g mask="url(#mask0_673_740)">
<path d="M38.7196 78.528H25.0539V101.964H0V13.764H40.4911C48.505 13.764 55.4644 15.108 61.3693 17.796C67.2743 20.4 71.8294 24.18 75.0349 29.136C78.2405 34.008 79.8432 39.762 79.8432 46.398C79.8432 52.782 78.3248 58.368 75.288 63.156C72.3355 67.86 68.0757 71.556 62.5081 74.244L81.6147 101.964H54.7895L38.7196 78.528ZM54.5364 46.398C54.5364 42.282 53.2289 39.09 50.6139 36.822C47.9988 34.554 44.1184 33.42 38.9727 33.42H25.0539V59.25H38.9727C44.1184 59.25 47.9988 58.158 50.6139 55.974C53.2289 53.706 54.5364 50.514 54.5364 46.398ZM138.332 103.728C128.968 103.728 120.533 101.754 113.025 97.806C105.601 93.858 99.7387 88.398 95.4365 81.426C91.2187 74.454 89.1098 66.6 89.1098 57.864C89.1098 49.128 91.2187 41.274 95.4365 34.302C99.7387 27.33 105.601 21.87 113.025 17.922C120.533 13.974 128.968 12 138.332 12C147.695 12 156.089 13.974 163.512 17.922C171.02 21.87 176.883 27.33 181.1 34.302C185.403 41.274 187.554 49.128 187.554 57.864C187.554 66.6 185.403 74.454 181.1 81.426C176.883 88.398 171.02 93.858 163.512 97.806C156.089 101.754 147.695 103.728 138.332 103.728ZM138.332 83.064C142.803 83.064 146.852 82.014 150.479 79.914C154.106 77.814 156.975 74.874 159.083 71.094C161.192 67.23 162.247 62.82 162.247 57.864C162.247 52.908 161.192 48.54 159.083 44.76C156.975 40.896 154.106 37.914 150.479 35.814C146.852 33.714 142.803 32.664 138.332 32.664C133.861 32.664 129.812 33.714 126.184 35.814C122.557 37.914 119.689 40.896 117.58 44.76C115.471 48.54 114.417 52.908 114.417 57.864C114.417 62.82 115.471 67.23 117.58 71.094C119.689 74.874 122.557 77.814 126.184 79.914C129.812 82.014 133.861 83.064 138.332 83.064ZM258.785 84.828H221.331L214.371 101.964H188.811L227.911 13.764H252.585L291.811 101.964H265.744L258.785 84.828ZM251.446 66.432L240.058 38.208L228.67 66.432H251.446ZM298.913 13.764H340.796C350.497 13.764 359.102 15.57 366.609 19.182C374.117 22.794 379.938 27.918 384.071 34.554C388.205 41.19 390.271 48.96 390.271 57.864C390.271 66.768 388.205 74.538 384.071 81.174C379.938 87.81 374.117 92.934 366.609 96.546C359.102 100.158 350.497 101.964 340.796 101.964H298.913V13.764ZM339.784 82.056C347.376 82.056 353.45 79.914 358.005 75.63C362.645 71.346 364.964 65.424 364.964 57.864C364.964 50.304 362.645 44.382 358.005 40.098C353.45 35.814 347.376 33.672 339.784 33.672H323.967V82.056H339.784ZM483.423 101.964L483.17 55.218L460.393 93.27H449.258L426.609 56.478V101.964H403.453V13.764H424.078L455.205 64.668L485.574 13.764H506.199L506.452 101.964H483.423ZM583.524 84.828H546.07L539.111 101.964H513.551L552.65 13.764H577.324L616.55 101.964H590.484L583.524 84.828ZM576.185 66.432L564.797 38.208L553.409 66.432H576.185ZM664.144 13.764C672.158 13.764 679.117 15.108 685.022 17.796C690.927 20.4 695.482 24.18 698.688 29.136C701.897 34.008 703.5 39.762 703.5 46.398C703.5 53.034 701.897 58.788 698.688 63.66C695.482 68.532 690.927 72.312 685.022 75C679.117 77.604 672.158 78.906 664.144 78.906H648.706V101.964H623.653V13.764H664.144ZM662.625 59.25C667.771 59.25 671.651 58.158 674.266 55.974C676.882 53.706 678.189 50.514 678.189 46.398C678.189 42.282 676.882 39.09 674.266 36.822C671.651 34.554 667.771 33.42 662.625 33.42H648.706V59.25H662.625Z" fill="#BBF120"/>
</g>
<defs>
<linearGradient id="paint0_linear_673_740" x1="351.5" y1="1.82194e-07" x2="352" y2="94.5" gradientUnits="userSpaceOnUse">
<stop stop-color="#C4C4C4"/>
<stop offset="1" stop-color="#C4C4C4" stop-opacity="0"/>
</linearGradient>
</defs>
</svg>
