<svg width="729" height="73" viewBox="0 0 729 73" fill="none" xmlns="http://www.w3.org/2000/svg">
<mask id="mask0_673_1460" style="mask-type:alpha" maskUnits="userSpaceOnUse" x="0" y="0" width="729" height="73">
<rect width="729" height="73" fill="url(#paint0_linear_673_1460)"/>
</mask>
<g mask="url(#mask0_673_1460)">
<path d="M22.7651 17.147H1V1.40385H64.4731V17.147H42.8093V71.5962H22.7651V17.147ZM106.687 73C99.196 73 92.4471 71.429 86.4407 68.2871C80.5017 65.1451 75.8112 60.7999 72.3693 55.2514C68.9949 49.7028 67.3076 43.4524 67.3076 36.5C67.3076 29.5476 68.9949 23.2972 72.3693 17.7486C75.8112 12.2001 80.5017 7.85486 86.4407 4.71292C92.4471 1.57097 99.196 0 106.687 0C114.178 0 120.894 1.57097 126.833 4.71292C132.839 7.85486 137.53 12.2001 140.904 17.7486C144.346 23.2972 146.067 29.5476 146.067 36.5C146.067 43.4524 144.346 49.7028 140.904 55.2514C137.53 60.7999 132.839 65.1451 126.833 68.2871C120.894 71.429 114.178 73 106.687 73ZM106.687 56.5549C110.264 56.5549 113.504 55.7193 116.406 54.0481C119.308 52.3768 121.602 50.0371 123.289 47.0288C124.977 43.9538 125.82 40.4441 125.82 36.5C125.82 32.5559 124.977 29.0797 123.289 26.0714C121.602 22.9963 119.308 20.6232 116.406 18.9519C113.504 17.2807 110.264 16.4451 106.687 16.4451C103.11 16.4451 99.8709 17.2807 96.9689 18.9519C94.0669 20.6232 91.7723 22.9963 90.085 26.0714C88.3978 29.0797 87.5542 32.5559 87.5542 36.5C87.5542 40.4441 88.3978 43.9538 90.085 47.0288C91.7723 50.0371 94.0669 52.3768 96.9689 54.0481C99.8709 55.7193 103.11 56.5549 106.687 56.5549ZM183.898 46.1264L176.407 54.0481V71.5962H156.565V1.40385H176.407V30.5838L203.841 1.40385H225.91L196.957 32.489L227.428 71.5962H204.145L183.898 46.1264ZM289.58 56.2541V71.5962H232.687V1.40385H288.264V16.7459H252.529V28.5783H284.012V43.4189H252.529V56.2541H289.58ZM368.124 1.40385V71.5962H351.623L320.342 34.1937V71.5962H300.703V1.40385H317.204L348.485 38.8063V1.40385H368.124ZM417.998 73C410.507 73 403.758 71.429 397.752 68.2871C391.813 65.1451 387.122 60.7999 383.68 55.2514C380.306 49.7028 378.619 43.4524 378.619 36.5C378.619 29.5476 380.306 23.2972 383.68 17.7486C387.122 12.2001 391.813 7.85486 397.752 4.71292C403.758 1.57097 410.507 0 417.998 0C425.491 0 432.206 1.57097 438.145 4.71292C444.152 7.85486 448.842 12.2001 452.217 17.7486C455.659 23.2972 457.379 29.5476 457.379 36.5C457.379 43.4524 455.659 49.7028 452.217 55.2514C448.842 60.7999 444.152 65.1451 438.145 68.2871C432.206 71.429 425.491 73 417.998 73ZM417.998 56.5549C421.577 56.5549 424.816 55.7193 427.718 54.0481C430.62 52.3768 432.915 50.0371 434.602 47.0288C436.289 43.9538 437.133 40.4441 437.133 36.5C437.133 32.5559 436.289 29.0797 434.602 26.0714C432.915 22.9963 430.62 20.6232 427.718 18.9519C424.816 17.2807 421.577 16.4451 417.998 16.4451C414.421 16.4451 411.182 17.2807 408.28 18.9519C405.378 20.6232 403.083 22.9963 401.396 26.0714C399.709 29.0797 398.865 32.5559 398.865 36.5C398.865 40.4441 399.709 43.9538 401.396 47.0288C403.083 50.0371 405.378 52.3768 408.28 54.0481C411.182 55.7193 414.421 56.5549 417.998 56.5549ZM531.853 71.5962L531.651 34.3942L513.429 64.6772H504.52L486.4 35.397V71.5962H467.874V1.40385H484.375L509.278 41.9148L533.574 1.40385H550.075L550.278 71.5962H531.853ZM564.463 1.40385H584.507V71.5962H564.463V1.40385ZM634.098 73C626.675 73 619.993 71.4625 614.054 68.3874C608.183 65.2454 603.56 60.9002 600.185 55.3516C596.811 49.8031 595.124 43.5192 595.124 36.5C595.124 29.4808 596.811 23.1969 600.185 17.6484C603.56 12.0998 608.183 7.78801 614.054 4.71292C619.993 1.57097 626.675 0 634.098 0C640.577 0 646.415 1.13645 651.612 3.40934C656.808 5.68224 661.128 8.95788 664.57 13.2363L651.814 24.6676C647.225 19.1859 641.657 16.4451 635.111 16.4451C631.264 16.4451 627.822 17.2807 624.785 18.9519C621.815 20.6232 619.487 22.9963 617.8 26.0714C616.18 29.0797 615.37 32.5559 615.37 36.5C615.37 40.4441 616.18 43.9538 617.8 47.0288C619.487 50.0371 621.815 52.3768 624.785 54.0481C627.822 55.7193 631.264 56.5549 635.111 56.5549C641.657 56.5549 647.225 53.8141 651.814 48.3324L664.57 59.7637C661.128 64.0421 656.808 67.3178 651.612 69.5907C646.415 71.8635 640.577 73 634.098 73ZM697.618 73C691.881 73 686.314 72.2981 680.914 70.8942C675.515 69.4904 671.129 67.6186 667.754 65.2788L674.334 50.6387C677.506 52.7111 681.184 54.3823 685.369 55.6525C689.553 56.9226 693.67 57.5577 697.719 57.5577C705.413 57.5577 709.26 55.6525 709.26 51.842C709.26 49.8365 708.146 48.3658 705.919 47.4299C703.759 46.4272 700.25 45.391 695.391 44.3214C690.059 43.185 685.605 41.9817 682.028 40.7115C678.451 39.3745 675.38 37.2688 672.816 34.3942C670.251 31.5197 668.969 27.6424 668.969 22.7624C668.969 18.484 670.15 14.6401 672.512 11.2308C674.874 7.75458 678.384 5.01374 683.04 3.00825C687.765 1.00275 693.535 0 700.351 0C705.008 0 709.597 0.534799 714.119 1.6044C718.641 2.60715 722.622 4.11127 726.064 6.11676L719.889 20.8571C713.14 17.2473 706.594 15.4423 700.25 15.4423C696.268 15.4423 693.366 16.044 691.544 17.2473C689.722 18.3837 688.811 19.8878 688.811 21.7596C688.811 23.6314 689.89 25.0353 692.05 25.9712C694.21 26.9071 697.685 27.8764 702.477 28.8791C707.876 30.0156 712.33 31.2523 715.84 32.5893C719.417 33.8594 722.487 35.9318 725.052 38.8063C727.684 41.614 729 45.4579 729 50.3379C729 54.5494 727.819 58.3599 725.457 61.7692C723.095 65.1786 719.552 67.9194 714.827 69.9918C710.103 71.9972 704.367 73 697.618 73Z" fill="#BBF120"/>
</g>
<defs>
<linearGradient id="paint0_linear_673_1460" x1="364.5" y1="-2.97615e-07" x2="365" y2="58" gradientUnits="userSpaceOnUse">
<stop stop-color="#C4C4C4"/>
<stop offset="1" stop-color="#C4C4C4" stop-opacity="0"/>
</linearGradient>
</defs>
</svg>
