<svg width="581" height="59" viewBox="0 0 581 59" fill="none" xmlns="http://www.w3.org/2000/svg">
<mask id="mask0_673_1457" style="mask-type:alpha" maskUnits="userSpaceOnUse" x="0" y="0" width="581" height="59">
<rect width="581" height="59" fill="url(#paint0_linear_673_1457)"/>
</mask>
<g mask="url(#mask0_673_1457)">
<path d="M21.2186 57.5702C20.9624 57.1341 20.7189 56.6851 20.4883 56.2233C20.2576 55.7615 20.0526 55.2997 19.8733 54.8379C16.5674 46.1152 13.2745 37.4694 9.99429 28.9006C6.71411 20.3317 3.42112 11.6859 0.115319 2.96317C0.115319 2.8349 0.0896923 2.71945 0.0384396 2.61683C0.0128132 2.51421 0 2.41159 0 2.30897C0 1.59062 0.474088 1.23145 1.42226 1.23145H13.7998C14.7736 1.23145 15.4399 1.7189 15.7987 2.6938L27.5612 37.7516L38.4396 2.6938C38.7983 1.7189 39.5031 1.23145 40.5537 1.23145H53.0466C53.636 1.23145 54.046 1.3469 54.2767 1.5778C54.5329 1.78304 54.6611 2.06524 54.6611 2.42442C54.6611 2.62966 54.6482 2.77076 54.6226 2.84773V2.96317L47.7804 22.5894L52.9313 37.7131L65.3857 2.6938C65.7445 1.7189 66.4492 1.23145 67.4999 1.23145H79.6083C80.1977 1.23145 80.6078 1.3469 80.8384 1.5778C81.0947 1.78304 81.2228 2.06524 81.2228 2.42442C81.2228 2.62966 81.21 2.77076 81.1844 2.84773V2.96317C79.4418 7.47848 77.6607 11.981 75.8413 16.4706C74.0218 20.9603 72.1895 25.4499 70.3444 29.9396C68.5249 34.4292 66.7055 38.9317 64.886 43.447C63.0921 47.9367 61.3367 52.4263 59.6198 56.916C59.5173 57.1982 59.2866 57.5189 58.9279 57.8781C58.5691 58.2116 58.1334 58.3783 57.6209 58.3783H57.5056H48.2032C47.6394 58.3783 47.2038 58.2757 46.8963 58.0705C46.6144 57.8396 46.4094 57.5446 46.2812 57.1854L40.2078 41.1766C39.3365 43.5112 38.478 45.8073 37.6323 48.065C36.7867 50.297 35.941 52.5803 35.0953 54.9149C34.9672 55.2741 34.8134 55.6589 34.634 56.0694C34.4803 56.4542 34.2881 56.8262 34.0575 57.1854C33.8268 57.5189 33.5577 57.8011 33.2502 58.032C32.9683 58.2629 32.6352 58.3783 32.2508 58.3783H32.1355H22.8331C22.0131 58.3783 21.4749 58.109 21.2186 57.5702ZM97.0227 2.73228C97.0484 2.57835 97.1252 2.41159 97.2534 2.232C97.4071 2.05242 97.5865 1.88566 97.7915 1.73173C97.9965 1.5778 98.2144 1.46235 98.445 1.38538C98.6756 1.28276 98.8935 1.23145 99.0985 1.23145H108.939C109.375 1.23145 109.746 1.37255 110.054 1.65476C110.361 1.91131 110.592 2.14221 110.746 2.34745L111.707 4.54097L131.887 56.6466C132.092 57.1597 132.054 57.583 131.772 57.9166C131.49 58.2244 131.003 58.3783 130.311 58.3783H119.279C118.69 58.3783 118.229 58.2757 117.895 58.0705C117.588 57.8396 117.344 57.4676 117.165 56.9545C116.653 55.6461 116.153 54.3505 115.666 53.0677C115.179 51.7593 114.692 50.4509 114.205 49.1425H93.7938C93.3069 50.4509 92.8072 51.7593 92.2947 53.0677C91.8078 54.3505 91.3209 55.6461 90.834 56.9545C90.5008 57.9037 89.8474 58.3783 88.8736 58.3783H77.5339C77.047 58.3783 76.637 58.2501 76.3038 57.9935C75.9963 57.737 75.945 57.3521 76.1501 56.839L97.0227 2.73228ZM104.019 19.2029C103.532 20.5113 103.032 21.9223 102.52 23.436C102.033 24.9497 101.546 26.4761 101.059 28.0155C100.572 29.5548 100.072 31.0812 99.5597 32.5949C99.0728 34.0829 98.5859 35.4811 98.099 36.7895H109.9L104.019 19.2029ZM139.47 2.92469C139.47 2.4629 139.611 2.06524 139.892 1.73173C140.2 1.39821 140.623 1.23145 141.161 1.23145H152.539C152.923 1.23145 153.321 1.38538 153.731 1.69324C154.166 2.00111 154.384 2.41159 154.384 2.92469V23.8978C157.177 20.3061 159.919 16.7657 162.61 13.2766C165.301 9.78745 168.03 6.24704 170.798 2.65531C171.08 2.21917 171.439 1.87283 171.874 1.61628C172.335 1.33407 172.784 1.19297 173.22 1.19297H187.827C188.442 1.19297 188.749 1.38538 188.749 1.77021C188.749 2.02676 188.608 2.33462 188.326 2.6938L170.221 26.5916L190.248 56.7621C190.53 57.1982 190.671 57.5446 190.671 57.8011C190.671 58.1859 190.389 58.3783 189.825 58.3783H175.295C174.86 58.3783 174.424 58.2501 173.988 57.9935C173.578 57.737 173.232 57.3906 172.95 56.9545C171.592 55.1073 170.349 53.3371 169.222 51.6439C168.12 49.9506 167.044 48.2702 165.993 46.6026C164.942 44.9094 163.879 43.2033 162.802 41.4844C161.726 39.7655 160.547 37.9568 159.266 36.0583L154.384 41.6768V56.6851C154.384 57.8139 153.769 58.3783 152.539 58.3783H141.199C140.046 58.3783 139.47 57.8139 139.47 56.6851V2.92469ZM216.171 2.73228C216.197 2.57835 216.274 2.41159 216.402 2.232C216.556 2.05242 216.735 1.88566 216.94 1.73173C217.145 1.5778 217.363 1.46235 217.594 1.38538C217.824 1.28276 218.042 1.23145 218.247 1.23145H228.088C228.523 1.23145 228.895 1.37255 229.202 1.65476C229.51 1.91131 229.74 2.14221 229.894 2.34745L230.855 4.54097L251.036 56.6466C251.241 57.1597 251.203 57.583 250.921 57.9166C250.639 58.2244 250.152 58.3783 249.46 58.3783H238.428C237.838 58.3783 237.377 58.2757 237.044 58.0705C236.736 57.8396 236.493 57.4676 236.314 56.9545C235.801 55.6461 235.301 54.3505 234.814 53.0677C234.328 51.7593 233.841 50.4509 233.354 49.1425H212.942C212.454 50.4509 211.955 51.7593 211.442 53.0677C210.955 54.3505 210.468 55.6461 209.981 56.9545C209.648 57.9037 208.995 58.3783 208.021 58.3783H196.681C196.194 58.3783 195.784 58.2501 195.451 57.9935C195.144 57.737 195.093 57.3521 195.298 56.839L216.171 2.73228ZM223.167 19.2029C222.68 20.5113 222.181 21.9223 221.668 23.436C221.181 24.9497 220.694 26.4761 220.207 28.0155C219.721 29.5548 219.221 31.0812 218.708 32.5949C218.221 34.0829 217.734 35.4811 217.248 36.7895H229.049L223.167 19.2029ZM263.33 39.9451C263.766 40.3043 264.317 40.7917 264.983 41.4075C265.675 41.9975 266.457 42.5876 267.328 43.1777C268.635 44.0499 269.929 44.7298 271.21 45.2172C272.492 45.7047 273.837 45.9484 275.246 45.9484C276.553 45.9484 277.643 45.8073 278.514 45.5251C279.411 45.2172 280.116 44.8196 280.628 44.3321C281.141 43.8447 281.499 43.2803 281.704 42.6389C281.935 41.9975 282.05 41.3177 282.05 40.5993C282.05 39.804 281.743 39.0985 281.128 38.4828C280.538 37.8414 279.808 37.277 278.937 36.7895C278.065 36.3021 277.156 35.8916 276.207 35.5581C275.259 35.1989 274.439 34.9039 273.747 34.673C270.672 33.5955 267.981 32.441 265.675 31.2095C263.369 29.9524 261.447 28.567 259.909 27.0534C258.372 25.5141 257.218 23.8337 256.45 22.0121C255.681 20.165 255.296 18.1126 255.296 15.8549C255.296 13.469 255.77 11.3011 256.719 9.35131C257.692 7.40152 259.063 5.73393 260.832 4.34855C262.625 2.96317 264.778 1.89848 267.289 1.15448C269.801 0.384825 272.607 0 275.708 0C278.04 0 280.269 0.269379 282.396 0.80814C284.549 1.32124 286.663 2.15504 288.739 3.30952C289.61 3.82262 290.43 4.36138 291.199 4.9258C291.993 5.46455 292.685 5.99049 293.275 6.50359C293.864 7.01669 294.325 7.50414 294.658 7.96593C295.017 8.42773 295.197 8.82538 295.197 9.1589C295.197 9.49242 295.107 9.80028 294.928 10.0825C294.774 10.3647 294.53 10.6854 294.197 11.0446L288.316 17.3172C287.88 17.7534 287.445 17.9715 287.009 17.9715C286.65 17.9715 286.317 17.8688 286.01 17.6636C285.728 17.4583 285.407 17.2018 285.049 16.8939L284.703 16.5861C284.19 16.1499 283.613 15.701 282.973 15.2392C282.358 14.7774 281.691 14.3669 280.974 14.0077C280.256 13.6229 279.5 13.315 278.706 13.0841C277.912 12.8276 277.104 12.6993 276.284 12.6993C275.439 12.6993 274.644 12.7763 273.901 12.9302C273.158 13.0585 272.504 13.2766 271.941 13.5844C271.377 13.8923 270.928 14.3028 270.595 14.8159C270.262 15.3033 270.096 15.9062 270.096 16.6246C270.096 17.3429 270.275 17.9715 270.634 18.5102C270.992 19.0233 271.531 19.5108 272.248 19.9726C272.966 20.4087 273.85 20.832 274.901 21.2425C275.977 21.6273 277.22 22.0506 278.629 22.5124C281.346 23.4103 283.844 24.3596 286.125 25.3601C288.431 26.335 290.417 27.5023 292.083 28.8621C293.749 30.1961 295.043 31.7996 295.965 33.6724C296.914 35.5452 297.388 37.8157 297.388 40.4839C297.388 43.3059 296.811 45.8715 295.658 48.1804C294.505 50.4637 292.916 52.4135 290.891 54.0298C288.893 55.6461 286.535 56.9032 283.819 57.8011C281.102 58.6734 278.181 59.1095 275.054 59.1095C272.107 59.1095 269.211 58.5836 266.367 57.5317C263.522 56.4799 260.87 55.0688 258.41 53.2986C257.385 52.5546 256.514 51.8235 255.796 51.1051C255.104 50.3868 254.553 49.8095 254.143 49.3734L254.028 49.2579C254.002 49.2066 253.977 49.181 253.951 49.181C253.925 49.1553 253.9 49.1297 253.874 49.104C253.848 49.0527 253.823 49.027 253.797 49.027C253.772 49.0014 253.746 48.9757 253.72 48.9501C253.131 48.3087 252.836 47.7956 252.836 47.4108C252.836 46.9746 253.131 46.4872 253.72 45.9484L260.37 39.5988C260.909 39.2139 261.344 39.0215 261.677 39.0215C261.908 39.0215 262.151 39.0985 262.408 39.2524C262.664 39.4064 262.971 39.6372 263.33 39.9451ZM305.864 3.00166C305.864 2.4629 306.005 2.03959 306.286 1.73173C306.568 1.39821 306.991 1.23145 307.555 1.23145H332.118C333.886 1.23145 335.552 1.47517 337.115 1.96262C338.678 2.45007 340.113 3.12993 341.42 4.00221C342.727 4.84883 343.906 5.87504 344.957 7.08083C346.007 8.26097 346.891 9.54373 347.609 10.9291C348.352 12.3145 348.916 13.7768 349.3 15.3161C349.685 16.8298 349.877 18.3691 349.877 19.9341C349.877 22.243 349.454 24.5007 348.608 26.707C347.788 28.9134 346.61 30.876 345.072 32.5949C343.534 34.3138 341.689 35.712 339.537 36.7895C337.384 37.8414 335.001 38.3801 332.387 38.4058H320.74V56.7236C320.74 57.8268 320.15 58.3783 318.971 58.3783H307.555C307.042 58.3783 306.632 58.2501 306.325 57.9935C306.017 57.7113 305.864 57.288 305.864 56.7236V3.00166ZM334.809 19.8571C334.809 19.0875 334.668 18.3178 334.386 17.5481C334.129 16.7785 333.745 16.0986 333.233 15.5086C332.72 14.8928 332.092 14.3926 331.349 14.0077C330.632 13.6229 329.811 13.4305 328.889 13.4305H320.74V26.2837H328.889C329.811 26.2837 330.644 26.1041 331.387 25.745C332.131 25.3601 332.746 24.8727 333.233 24.2826C333.745 23.6926 334.129 23.0127 334.386 22.243C334.668 21.4734 334.809 20.6781 334.809 19.8571ZM368.802 2.73228C368.828 2.57835 368.904 2.41159 369.033 2.232C369.186 2.05242 369.366 1.88566 369.571 1.73173C369.776 1.5778 369.994 1.46235 370.224 1.38538C370.455 1.28276 370.673 1.23145 370.878 1.23145H380.718C381.154 1.23145 381.525 1.37255 381.833 1.65476C382.141 1.91131 382.371 2.14221 382.525 2.34745L383.486 4.54097L403.667 56.6466C403.872 57.1597 403.833 57.583 403.551 57.9166C403.269 58.2244 402.783 58.3783 402.091 58.3783H391.059C390.469 58.3783 390.008 58.2757 389.675 58.0705C389.367 57.8396 389.124 57.4676 388.944 56.9545C388.432 55.6461 387.932 54.3505 387.445 53.0677C386.958 51.7593 386.471 50.4509 385.984 49.1425H365.573C365.086 50.4509 364.586 51.7593 364.074 53.0677C363.587 54.3505 363.1 55.6461 362.613 56.9545C362.28 57.9037 361.627 58.3783 360.653 58.3783H349.313C348.826 58.3783 348.416 58.2501 348.083 57.9935C347.776 57.737 347.724 57.3521 347.929 56.839L368.802 2.73228ZM375.798 19.2029C375.311 20.5113 374.811 21.9223 374.299 23.436C373.812 24.9497 373.325 26.4761 372.838 28.0155C372.351 29.5548 371.852 31.0812 371.339 32.5949C370.852 34.0829 370.365 35.4811 369.878 36.7895H381.679L375.798 19.2029ZM449.773 5.38759C450.208 5.64414 450.529 5.97766 450.734 6.38814C450.939 6.79862 450.9 7.28607 450.618 7.85049L444.122 17.0863C443.84 17.5225 443.533 17.779 443.2 17.856C442.892 17.9073 442.508 17.7919 442.046 17.5097C440.791 16.5604 439.407 15.8292 437.895 15.3161C436.383 14.803 434.781 14.5465 433.09 14.5465C430.989 14.5465 429.054 14.9441 427.286 15.7395C425.517 16.5348 423.993 17.6251 422.711 19.0105C421.43 20.3959 420.431 22.0121 419.713 23.8593C418.996 25.7065 418.637 27.6819 418.637 29.7857C418.637 31.8894 418.996 33.8648 419.713 35.712C420.431 37.5335 421.43 39.137 422.711 40.5224C423.993 41.8821 425.517 42.9596 427.286 43.7549C429.054 44.5502 430.989 44.9479 433.09 44.9479C434.781 44.9479 436.396 44.6913 437.933 44.1782C439.471 43.6395 440.868 42.8955 442.123 41.9462C442.585 41.664 442.969 41.5486 443.276 41.5999C443.584 41.6512 443.892 41.8821 444.199 42.2926L450.772 51.7593C451.054 52.3237 451.093 52.7984 450.888 53.1832C450.682 53.568 450.362 53.8887 449.927 54.1452C447.518 55.7615 444.917 57.0186 442.123 57.9166C439.356 58.7888 436.434 59.225 433.359 59.225C430.643 59.225 428.029 58.8786 425.517 58.1859C423.032 57.4932 420.7 56.5055 418.521 55.2228C416.343 53.94 414.357 52.4135 412.563 50.6433C410.795 48.8475 409.27 46.872 407.989 44.717C406.708 42.5363 405.721 40.2017 405.029 37.7131C404.337 35.1989 403.991 32.5821 403.991 29.8626C403.991 27.1432 404.337 24.5392 405.029 22.0506C405.721 19.5364 406.708 17.189 407.989 15.0083C409.27 12.8019 410.795 10.8008 412.563 9.00497C414.357 7.20911 416.343 5.68262 418.521 4.42552C420.7 3.14276 423.032 2.15504 425.517 1.46235C428.029 0.744002 430.643 0.384825 433.359 0.384825C436.434 0.384825 439.33 0.820968 442.046 1.69324C444.788 2.53986 447.364 3.77131 449.773 5.38759ZM460.506 2.92469C460.506 2.4629 460.647 2.06524 460.929 1.73173C461.211 1.39821 461.634 1.23145 462.197 1.23145H473.499C473.883 1.23145 474.293 1.38538 474.729 1.69324C475.164 2.00111 475.382 2.41159 475.382 2.92469V56.6851C475.382 57.8139 474.754 58.3783 473.499 58.3783H462.197C461.07 58.3783 460.506 57.8139 460.506 56.6851V2.92469ZM487.755 3.00166C487.755 2.4629 487.896 2.03959 488.178 1.73173C488.486 1.39821 488.909 1.23145 489.447 1.23145H527.617C528.181 1.23145 528.617 1.39821 528.924 1.73173C529.232 2.06524 529.385 2.51421 529.385 3.07862V12.6223C529.385 13.0585 529.232 13.4818 528.924 13.8923C528.617 14.2771 528.168 14.4695 527.579 14.4695H502.67V23.9748H521.89C522.377 23.9748 522.774 24.0902 523.081 24.3211C523.414 24.552 523.581 24.9368 523.581 25.4756V33.7879C523.581 34.147 523.44 34.4934 523.158 34.8269C522.876 35.1604 522.466 35.3272 521.928 35.3272H502.67V45.1403H528.501C529.654 45.1403 530.231 45.7304 530.231 46.9105V56.6081C530.231 56.8647 530.129 57.0956 529.924 57.3008C529.821 58.0192 529.296 58.3783 528.348 58.3783H489.447C488.934 58.3783 488.524 58.2501 488.217 57.9935C487.909 57.7113 487.755 57.288 487.755 56.7236V3.00166ZM546.822 39.9451C547.258 40.3043 547.809 40.7917 548.475 41.4075C549.167 41.9975 549.948 42.5876 550.82 43.1777C552.127 44.0499 553.421 44.7298 554.702 45.2172C555.983 45.7047 557.329 45.9484 558.738 45.9484C560.045 45.9484 561.134 45.8073 562.006 45.5251C562.902 45.2172 563.607 44.8196 564.12 44.3321C564.632 43.8447 564.991 43.2803 565.196 42.6389C565.427 41.9975 565.542 41.3177 565.542 40.5993C565.542 39.804 565.234 39.0985 564.619 38.4828C564.03 37.8414 563.3 37.277 562.428 36.7895C561.557 36.3021 560.647 35.8916 559.699 35.5581C558.751 35.1989 557.931 34.9039 557.239 34.673C554.164 33.5955 551.473 32.441 549.167 31.2095C546.86 29.9524 544.938 28.567 543.401 27.0534C541.863 25.5141 540.71 23.8337 539.941 22.0121C539.173 20.165 538.788 18.1126 538.788 15.8549C538.788 13.469 539.262 11.3011 540.21 9.35131C541.184 7.40152 542.555 5.73393 544.323 4.34855C546.117 2.96317 548.27 1.89848 550.781 1.15448C553.293 0.384825 556.099 0 559.199 0C561.531 0 563.761 0.269379 565.888 0.80814C568.041 1.32124 570.155 2.15504 572.231 3.30952C573.102 3.82262 573.922 4.36138 574.691 4.9258C575.485 5.46455 576.177 5.99049 576.766 6.50359C577.356 7.01669 577.817 7.50414 578.15 7.96593C578.509 8.42773 578.688 8.82538 578.688 9.1589C578.688 9.49242 578.599 9.80028 578.419 10.0825C578.266 10.3647 578.022 10.6854 577.689 11.0446L571.808 17.3172C571.372 17.7534 570.936 17.9715 570.501 17.9715C570.142 17.9715 569.809 17.8688 569.501 17.6636C569.219 17.4583 568.899 17.2018 568.54 16.8939L568.194 16.5861C567.682 16.1499 567.105 15.701 566.465 15.2392C565.85 14.7774 565.183 14.3669 564.466 14.0077C563.748 13.6229 562.992 13.315 562.198 13.0841C561.403 12.8276 560.596 12.6993 559.776 12.6993C558.93 12.6993 558.136 12.7763 557.393 12.9302C556.65 13.0585 555.996 13.2766 555.432 13.5844C554.869 13.8923 554.42 14.3028 554.087 14.8159C553.754 15.3033 553.587 15.9062 553.587 16.6246C553.587 17.3429 553.767 17.9715 554.125 18.5102C554.484 19.0233 555.022 19.5108 555.74 19.9726C556.457 20.4087 557.342 20.832 558.392 21.2425C559.469 21.6273 560.711 22.0506 562.121 22.5124C564.837 23.4103 567.336 24.3596 569.617 25.3601C571.923 26.335 573.909 27.5023 575.575 28.8621C577.24 30.1961 578.535 31.7996 579.457 33.6724C580.405 35.5452 580.879 37.8157 580.879 40.4839C580.879 43.3059 580.303 45.8715 579.15 48.1804C577.996 50.4637 576.408 52.4135 574.383 54.0298C572.384 55.6461 570.027 56.9032 567.31 57.8011C564.594 58.6734 561.672 59.1095 558.546 59.1095C555.599 59.1095 552.703 58.5836 549.859 57.5317C547.014 56.4799 544.362 55.0688 541.902 53.2986C540.877 52.5546 540.005 51.8235 539.288 51.1051C538.596 50.3868 538.045 49.8095 537.635 49.3734L537.52 49.2579C537.494 49.2066 537.468 49.181 537.443 49.181C537.417 49.1553 537.391 49.1297 537.366 49.104C537.34 49.0527 537.315 49.027 537.289 49.027C537.263 49.0014 537.238 48.9757 537.212 48.9501C536.623 48.3087 536.328 47.7956 536.328 47.4108C536.328 46.9746 536.623 46.4872 537.212 45.9484L543.862 39.5988C544.4 39.2139 544.836 39.0215 545.169 39.0215C545.4 39.0215 545.643 39.0985 545.899 39.2524C546.156 39.4064 546.463 39.6372 546.822 39.9451Z" fill="#BBF120"/>
</g>
<defs>
<linearGradient id="paint0_linear_673_1457" x1="290.5" y1="0" x2="291" y2="41.5" gradientUnits="userSpaceOnUse">
<stop stop-color="#C4C4C4"/>
<stop offset="1" stop-color="#C4C4C4" stop-opacity="0"/>
</linearGradient>
</defs>
</svg>
